<?xml version="1.0" standalone="no"?>
<!DOCTYPE svg PUBLIC "-//W3C//DTD SVG 20010904//EN"
 "http://www.w3.org/TR/2001/REC-SVG-20010904/DTD/svg10.dtd">
<svg version="1.0" xmlns="http://www.w3.org/2000/svg"
 width="300.000000pt" height="300.000000pt" viewBox="0 0 300.000000 300.000000"
 preserveAspectRatio="xMidYMid meet">
<metadata>
Created by potrace 1.10, written by Peter Selinger 2001-2011
</metadata>
<g transform="translate(0.000000,300.000000) scale(0.100000,-0.100000)"
fill="#000000" stroke="none">
<path d="M1370 2613 c-412 -72 -774 -374 -904 -754 -97 -286 -81 -572 49 -846
150 -319 433 -548 782 -635 73 -18 115 -22 248 -22 140 1 172 4 260 28 201 53
414 181 550 329 328 357 405 839 201 1262 -156 325 -453 556 -808 629 -73 15
-311 21 -378 9z m280 -53 c397 -49 743 -317 891 -693 82 -206 90 -465 22 -682
-184 -584 -807 -915 -1355 -719 -361 129 -616 408 -716 783 -21 83 -25 117
-25 246 0 129 4 163 25 246 87 324 290 570 593 715 198 95 372 127 565 104z"/>
<path d="M1490 2470 c0 -38 4 -50 15 -50 11 0 15 12 15 50 0 38 -4 50 -15 50
-11 0 -15 -12 -15 -50z"/>
<path d="M1570 2465 c0 -30 5 -55 10 -55 6 0 10 12 10 28 l1 27 22 -27 c31
-38 47 -35 47 6 0 19 3 41 6 50 4 10 1 16 -9 16 -10 0 -17 -11 -19 -27 l-3
-28 -20 33 c-30 49 -45 41 -45 -23z"/>
<path d="M1376 2502 c-4 -7 8 -90 15 -96 11 -10 69 8 69 21 0 11 -7 13 -25 9
-22 -6 -25 -3 -25 18 0 43 -19 71 -34 48z"/>
<path d="M1703 2450 c-8 -39 -7 -50 3 -50 17 0 22 9 30 58 5 34 4 42 -8 42
-10 0 -19 -17 -25 -50z"/>
<path d="M1255 2460 c-29 -32 -10 -74 33 -78 36 -4 69 15 53 31 -5 5 -16 5
-29 -2 -15 -8 -23 -7 -32 4 -15 18 -5 35 21 35 10 0 19 7 19 15 0 22 -44 19
-65 -5z"/>
<path d="M1780 2451 c-22 -41 1 -81 46 -81 32 0 31 18 -2 30 -32 13 -26 35 9
35 33 1 46 13 27 25 -26 17 -69 11 -80 -9z"/>
<path d="M1450 2384 c-19 -10 -44 -19 -55 -21 -58 -11 -160 -47 -235 -83 -259
-126 -431 -342 -485 -609 -13 -62 -16 -116 -13 -210 4 -108 9 -138 35 -213 41
-119 101 -216 190 -309 123 -128 236 -198 439 -270 106 -38 129 -42 209 -42
84 0 100 3 230 51 218 81 361 177 474 319 68 86 122 192 153 300 32 110 32
304 0 416 -95 336 -351 569 -720 658 -122 29 -180 33 -222 13z m148 -41 c20
-9 41 -15 45 -14 5 1 6 -3 3 -8 -3 -5 -25 -2 -49 7 -57 20 -126 3 -163 -41
-33 -39 -41 -30 -11 14 40 59 102 75 175 42z m-223 -45 c-3 -8 -27 -20 -53
-26 -73 -20 -220 -95 -295 -153 -240 -182 -355 -511 -281 -802 50 -196 172
-349 392 -491 67 -44 120 -81 118 -83 -2 -3 -28 8 -58 23 -319 161 -498 425
-498 736 1 312 172 583 460 728 60 31 212 90 218 85 1 -1 0 -9 -3 -17z m397
-4 c242 -87 418 -236 516 -436 66 -134 85 -214 85 -353 0 -224 -77 -401 -244
-561 -73 -69 -122 -104 -232 -164 -135 -73 -95 -36 83 79 97 62 158 117 215
194 99 131 143 251 152 407 17 324 -156 608 -464 764 l-52 26 13 -30 c8 -19
33 -43 72 -66 230 -139 364 -340 391 -588 l6 -59 -27 7 c-36 9 -67 -1 -59 -20
3 -7 0 -14 -7 -14 -9 0 -10 11 -5 36 5 28 3 35 -7 32 -8 -3 -12 -17 -10 -38 2
-21 0 -30 -7 -26 -6 4 -20 2 -32 -4 -11 -7 -23 -9 -26 -6 -4 3 8 11 25 17 18
6 29 15 26 20 -6 11 -114 12 -114 1 0 -13 58 -62 73 -62 8 0 18 -7 21 -16 3
-9 12 -14 19 -11 10 3 13 -6 14 -32 1 -77 3 -85 14 -74 6 6 9 33 8 60 -4 43
-2 49 14 45 11 -3 17 1 17 12 0 9 8 16 19 16 33 0 33 18 0 25 -17 4 -28 9 -25
12 2 3 18 2 35 -2 25 -5 31 -12 31 -33 0 -59 -43 -200 -83 -275 l-42 -79 -6
93 c-10 161 -56 224 -225 305 -86 41 -158 86 -220 139 -23 19 -24 22 -13 90 9
56 16 74 37 92 26 20 27 25 28 125 0 81 5 117 24 171 30 88 23 112 -45 147
-121 61 -118 79 7 34z m-102 -40 l75 -25 -60 7 c-33 4 -88 8 -122 8 -54 0 -69
-4 -108 -32 -47 -33 -56 -32 -29 7 46 65 123 76 244 35z m-310 2 c0 -7 -13
-16 -30 -19 -19 -4 -37 -18 -50 -39 -23 -37 -23 -68 4 -181 11 -48 13 -74 6
-87 -20 -38 -3 -105 30 -115 18 -6 22 -20 35 -116 l7 -47 -75 -55 c-42 -31
-121 -79 -176 -106 -169 -85 -210 -144 -211 -299 0 -61 -4 -91 -10 -87 -19 12
-88 160 -104 221 -26 103 -29 182 -12 281 43 247 175 432 391 549 39 20 86 52
105 69 48 44 90 59 90 31z m5 -66 c4 -6 -5 -20 -19 -31 -20 -15 -26 -30 -26
-57 0 -28 -3 -33 -10 -22 -16 25 -11 66 11 94 22 28 34 32 44 16z m432 -12
c-14 -21 -21 -23 -104 -20 -85 2 -122 -5 -215 -43 -10 -4 -18 -3 -18 2 0 4 26
23 59 41 64 35 110 40 185 21 36 -9 49 -8 72 5 38 20 39 20 21 -6z m-344 -37
c-10 -17 -26 -31 -35 -31 -21 0 -58 -46 -58 -74 0 -11 -7 -29 -14 -39 -12 -16
-14 -16 -20 -1 -11 30 -6 54 26 113 29 54 35 59 66 59 18 0 36 3 39 6 15 14
12 -4 -4 -33z m307 -37 c13 -13 -8 -104 -25 -104 -7 0 -15 14 -19 32 -13 66
-59 84 -133 53 -40 -17 -69 -19 -77 -6 -4 5 13 16 36 25 47 17 201 17 218 0z
m-283 -63 c32 -16 69 -13 123 10 27 12 56 19 64 16 8 -3 17 -25 21 -49 4 -24
13 -50 21 -59 12 -13 11 -29 -1 -110 -19 -119 -28 -141 -76 -184 -33 -29 -47
-35 -85 -35 -86 0 -144 54 -162 150 -23 120 -25 160 -8 179 9 10 19 40 22 67
8 56 23 71 44 45 8 -10 25 -24 37 -30z m279 -165 c-10 -39 -23 -31 -18 10 3
24 8 32 14 26 6 -6 8 -22 4 -36z m-289 -275 c12 -6 43 -11 68 -11 50 0 77 10
113 43 22 20 22 20 22 1 0 -14 -23 -37 -66 -68 -65 -47 -66 -47 -92 -30 -57
36 -112 86 -112 101 0 14 4 13 23 -4 12 -11 32 -26 44 -32z m252 -63 c1 -15
-14 -55 -33 -88 l-33 -61 -37 50 c-20 28 -36 54 -36 59 1 4 23 23 51 42 28 19
55 44 61 55 11 19 12 19 19 -5 4 -14 7 -37 8 -52z m-339 53 c0 -5 27 -29 61
-54 33 -25 56 -48 51 -51 -6 -3 -23 -26 -40 -51 l-29 -45 -38 61 c-33 54 -36
65 -30 105 3 24 10 44 16 44 5 0 9 -4 9 -9z m-78 -183 l-4 -153 -32 -33 c-29
-30 -34 -31 -60 -20 l-28 13 5 88 c7 102 37 180 89 227 18 17 33 30 33 30 0 0
-1 -69 -3 -152z m539 70 c24 -47 24 -58 -1 -58 -11 0 -29 -9 -41 -21 -11 -11
-22 -19 -24 -17 -1 2 -5 42 -7 89 l-4 87 29 -22 c16 -11 38 -38 48 -58z m-681
-58 c-12 -33 -19 -83 -20 -127 0 -66 -2 -74 -30 -101 -20 -21 -30 -40 -30 -61
0 -36 36 -81 68 -84 20 -1 22 -6 22 -68 0 -37 5 -80 10 -95 6 -15 9 -29 6 -31
-8 -8 -149 93 -198 142 l-48 47 0 95 c0 132 13 178 69 233 37 36 160 115 168
107 1 -1 -7 -27 -17 -57z m910 -57 c50 -53 61 -99 58 -230 l-3 -107 -72 -61
c-90 -75 -180 -128 -169 -99 4 10 10 34 13 52 5 27 10 32 33 32 31 0 65 32 57
55 -8 19 -21 19 -37 0 -25 -30 -47 -18 -53 30 -7 48 -55 153 -80 174 -24 20
-32 107 -12 137 23 36 60 47 94 29 38 -19 43 -37 35 -112 l-6 -63 32 0 33 0
-7 53 c-3 28 -6 65 -6 81 0 19 -11 39 -34 60 -31 30 -56 66 -56 81 0 16 146
-74 180 -112z m-502 79 c18 -25 19 -30 6 -55 -8 -15 -12 -32 -9 -37 4 -6 -9
-10 -29 -10 -30 0 -36 4 -36 21 0 11 -4 29 -10 39 -7 13 -4 24 11 44 26 33 43
33 67 -2z m-162 -101 c2 -3 15 6 28 18 21 19 24 20 30 6 10 -28 7 -31 -36 -44
-24 -7 -53 -19 -65 -27 l-23 -14 0 87 0 88 31 -55 c18 -30 33 -57 35 -59z
m324 19 l0 -80 -22 14 c-13 8 -42 20 -65 27 -44 13 -47 16 -37 44 6 14 10 13
33 -9 l26 -25 30 54 c16 30 31 55 32 55 2 0 3 -36 3 -80z m-56 -99 c238 -117
242 -448 7 -563 -39 -19 -62 -23 -146 -23 -89 0 -106 3 -150 27 -111 59 -169
154 -170 278 0 62 5 85 28 132 34 69 100 130 171 158 72 28 192 24 260 -9z
m-479 -95 c19 -14 19 -16 2 -50 -19 -41 -24 -42 -55 -20 -26 18 -28 41 -5 66
19 22 33 23 58 4z"/>
<path d="M1920 2010 c0 -13 110 -13 130 0 10 7 -7 10 -57 10 -42 0 -73 -4 -73
-10z"/>
<path d="M1920 1980 c0 -6 28 -10 65 -10 37 0 65 4 65 10 0 6 -28 10 -65 10
-37 0 -65 -4 -65 -10z"/>
<path d="M1947 1943 c18 -2 50 -2 70 0 21 2 7 4 -32 4 -38 0 -55 -2 -38 -4z"/>
<path d="M1947 1913 c18 -2 50 -2 70 0 21 2 7 4 -32 4 -38 0 -55 -2 -38 -4z"/>
<path d="M1840 1850 c0 -6 48 -10 125 -10 118 0 125 -1 125 -20 0 -14 -7 -20
-24 -20 -13 0 -27 6 -29 13 -4 9 -8 9 -15 -2 -8 -11 -14 -11 -33 -1 -17 10
-24 10 -27 1 -2 -6 -21 -11 -43 -11 -22 0 -39 -5 -39 -11 0 -7 15 -10 40 -7
36 3 40 1 40 -19 0 -19 -5 -23 -30 -23 -16 0 -30 -4 -30 -10 0 -5 14 -10 30
-10 20 0 30 -5 30 -15 0 -8 5 -15 10 -15 6 0 10 7 10 15 0 12 16 15 80 15 47
0 80 4 80 10 0 6 -22 10 -50 10 -43 0 -50 3 -50 20 0 18 7 20 54 20 30 0 58 5
61 10 4 6 -5 10 -19 10 -19 0 -26 5 -26 20 0 16 7 20 30 20 17 0 30 5 30 10 0
6 -62 10 -165 10 -103 0 -165 -4 -165 -10z m180 -85 c0 -18 -5 -25 -20 -25
-11 0 -20 7 -20 16 0 8 4 13 9 10 5 -3 11 1 15 9 8 23 16 18 16 -10z"/>
<path d="M1828 1683 c18 -2 45 -2 60 0 15 2 0 4 -33 4 -33 0 -45 -2 -27 -4z"/>
<path d="M2148 1683 c17 -2 47 -2 65 0 17 2 3 4 -33 4 -36 0 -50 -2 -32 -4z"/>
<path d="M1823 1643 c16 -3 31 -11 34 -19 4 -11 41 -14 202 -14 190 0 197 1
197 20 0 19 -6 20 -231 19 -126 -1 -217 -4 -202 -6z"/>
<path d="M1968 1573 c46 -2 118 -2 160 0 42 1 5 3 -83 3 -88 0 -123 -2 -77 -3z"/>
<path d="M2206 1284 c-9 -23 8 -38 23 -21 9 11 8 17 -3 26 -11 9 -15 8 -20 -5z"/>
<path d="M1131 2067 c-12 -16 -5 -47 11 -47 5 0 16 6 23 14 12 12 11 16 -4 30
-15 14 -20 14 -30 3z"/>
<path d="M1034 2006 c-3 -8 -4 -25 -2 -38 2 -19 9 -23 38 -23 33 0 35 2 35 35
0 32 -3 35 -33 38 -21 2 -34 -2 -38 -12z"/>
<path d="M986 1933 c-8 -21 10 -41 24 -27 11 11 3 44 -10 44 -4 0 -11 -8 -14
-17z"/>
<path d="M1133 1939 c-14 -14 -6 -39 12 -39 18 0 26 27 11 39 -9 7 -16 7 -23
0z"/>
<path d="M900 1850 c0 -6 63 -10 170 -10 107 0 170 4 170 10 0 6 -63 10 -170
10 -107 0 -170 -4 -170 -10z"/>
<path d="M983 1802 c-41 -2 -73 -7 -73 -13 0 -6 26 -9 68 -8 62 2 67 1 70 -19
3 -18 -2 -22 -21 -22 -14 0 -28 6 -31 13 -5 10 -7 10 -12 0 -3 -7 -14 -13 -25
-13 -10 0 -19 -4 -19 -10 0 -5 9 -10 20 -10 13 0 20 -7 20 -20 0 -11 5 -20 10
-20 6 0 10 9 10 20 0 19 7 20 95 20 57 0 95 4 95 10 0 6 -9 10 -20 10 -11 0
-20 7 -20 15 0 8 -5 15 -10 15 -6 0 -13 -7 -16 -15 -9 -23 -51 -19 -57 5 -5
19 0 20 64 20 38 0 69 4 69 9 0 11 -111 17 -217 13z"/>
<path d="M1188 1683 c17 -2 47 -2 65 0 17 2 3 4 -33 4 -36 0 -50 -2 -32 -4z"/>
<path d="M823 1643 c4 -3 2 -12 -4 -20 -10 -11 22 -13 184 -13 131 0 197 4
199 11 2 6 19 14 38 19 22 5 -52 8 -194 9 -126 1 -226 -2 -223 -6z"/>
<path d="M812 1575 c7 -7 369 -7 376 0 3 3 -82 5 -188 5 -106 0 -191 -2 -188
-5z"/>
<path d="M910 1505 c0 -9 -9 -15 -21 -15 -12 0 -19 -5 -16 -12 2 -7 11 -12 21
-10 10 2 16 -4 16 -18 0 -11 7 -20 15 -20 8 0 15 9 15 20 0 14 6 20 18 18 10
-2 17 3 17 12 0 9 -7 14 -17 12 -11 -2 -18 3 -18 13 0 8 -7 15 -15 15 -8 0
-15 -7 -15 -15z"/>
<path d="M837 1285 c-8 -18 11 -31 25 -17 11 11 3 32 -12 32 -4 0 -10 -7 -13
-15z"/>
<path d="M1952 1171 c-17 -10 -12 -123 6 -129 9 -3 12 15 12 67 0 39 -1 71 -2
71 -2 0 -9 -4 -16 -9z"/>
<path d="M1457 1214 c-4 -4 -7 -40 -7 -80 l0 -73 -82 -3 -83 -3 0 -75 0 -75
82 -3 82 -3 3 -77 3 -77 83 -3 82 -3 0 80 0 80 83 3 82 3 0 75 0 75 -82 3 -82
3 -3 77 -3 77 -75 3 c-42 1 -79 0 -83 -4z m131 -33 c1 -1 2 -27 2 -59 0 -75
16 -91 101 -100 59 -7 64 -9 67 -33 5 -40 -21 -59 -80 -59 -68 0 -88 -18 -88
-81 0 -55 -18 -79 -60 -79 -31 0 -53 26 -49 58 7 74 -19 102 -96 102 -44 0
-56 4 -65 20 -14 26 -2 70 19 71 122 7 141 18 141 86 0 69 13 85 63 79 23 -3
43 -5 45 -5z"/>
<path d="M2058 2339 c6 -9 10 -18 7 -21 -3 -3 1 -10 8 -17 11 -9 17 -8 27 4
10 12 10 15 0 15 -8 0 -23 8 -34 18 -16 13 -18 13 -8 1z"/>
<path d="M839 2183 c-1 -5 -1 -12 0 -17 4 -18 -53 -66 -71 -60 -19 6 -21 0 -9
-30 6 -17 12 -13 45 28 22 25 47 46 58 46 16 0 17 3 8 20 -11 20 -29 27 -31
13z"/>
<path d="M2211 2171 c-15 -26 -14 -34 3 -28 7 3 18 1 24 -5 8 -8 10 -3 8 18
-4 34 -21 42 -35 15z"/>
<path d="M2284 2092 c8 -8 22 -12 30 -9 26 10 18 24 -14 24 -27 0 -29 -2 -16
-15z"/>
<path d="M724 2025 c-4 -11 -13 -13 -28 -9 -18 6 -19 5 -7 -10 18 -22 26 -20
45 9 9 14 12 25 6 25 -6 0 -13 -7 -16 -15z"/>
<path d="M2347 2011 c-19 -12 -25 -21 -18 -26 15 -9 64 23 56 35 -8 12 -5 13
-38 -9z"/>
<path d="M676 1944 c-5 -13 -9 -14 -21 -4 -17 14 -21 0 -4 -17 8 -8 6 -19 -5
-41 -18 -34 -21 -56 -7 -47 5 3 12 19 16 35 5 21 12 30 27 30 17 0 18 2 8 15
-10 12 -10 18 0 30 7 9 8 15 2 15 -5 0 -13 -7 -16 -16z"/>
<path d="M2384 1919 c-16 -18 -16 -19 1 -19 10 0 23 -8 30 -17 11 -14 12 -12
11 15 -1 39 -18 47 -42 21z"/>
<path d="M594 1864 c-14 -31 -24 -60 -22 -65 2 -4 15 21 29 57 33 79 27 85 -7
8z"/>
<path d="M2464 1883 c9 -17 27 -69 40 -115 14 -46 25 -75 25 -66 1 27 -47 172
-64 193 -15 18 -15 17 -1 -12z"/>
<path d="M551 1736 c-6 -25 -11 -53 -10 -63 0 -10 7 9 15 41 8 33 13 61 10 63
-2 2 -9 -16 -15 -41z"/>
<path d="M2444 1755 c-18 -14 -18 -14 9 -15 17 0 27 5 27 15 0 19 -11 19 -36
0z"/>
<path d="M567 1653 c-22 -6 -17 -27 6 -31 12 -2 17 3 17 17 0 12 -1 20 -2 20
-2 -1 -11 -3 -21 -6z"/>
<path d="M2483 1653 c-13 -2 -23 -11 -23 -20 0 -11 6 -14 23 -9 12 3 27 6 33
6 6 0 11 7 11 15 0 15 -4 16 -44 8z"/>
<path d="M2544 1510 c0 -58 1 -81 3 -52 2 28 2 76 0 105 -2 28 -3 5 -3 -53z"/>
<path d="M521 1495 c0 -33 4 -69 8 -80 5 -12 7 9 4 50 -6 91 -11 105 -12 30z"/>
<path d="M2499 1515 c-3 -5 -7 -43 -8 -82 -3 -68 -1 -73 18 -73 12 0 21 5 21
10 0 6 -4 10 -10 10 -5 0 -10 33 -12 73 -2 39 -6 68 -9 62z"/>
<path d="M571 1423 c-1 -23 -6 -33 -17 -33 -8 0 -12 -4 -9 -10 8 -12 65 -13
65 -1 0 5 -6 11 -14 14 -8 3 -16 18 -19 34 -4 27 -4 27 -6 -4z"/>
<path d="M2512 1265 c-12 -48 -41 -128 -65 -177 -23 -48 -40 -88 -36 -88 23 0
138 309 127 341 -2 7 -14 -28 -26 -76z"/>
<path d="M578 1293 c-10 -2 -18 -10 -18 -17 0 -17 62 -6 68 12 4 12 -16 14
-50 5z"/>
<path d="M590 1151 c0 -21 58 -137 77 -152 16 -12 17 -12 6 2 -7 9 -28 49 -48
90 -19 41 -34 68 -35 60z"/>
<path d="M2412 1125 c-14 -31 -15 -48 -3 -41 12 8 32 66 22 66 -4 0 -13 -11
-19 -25z"/>
<path d="M680 1055 c0 -3 8 -17 17 -31 13 -21 14 -27 3 -34 -8 -5 -10 -17 -6
-33 8 -35 122 -174 156 -192 15 -8 30 -21 33 -30 4 -8 12 -15 19 -15 10 0 10
2 0 9 -8 4 -12 17 -10 27 2 14 -2 18 -19 17 -34 -4 -184 171 -168 196 10 17
23 13 30 -9 4 -11 11 -18 16 -14 6 4 6 10 -1 19 -6 7 -8 20 -4 29 4 11 1 16
-10 16 -9 0 -22 11 -28 25 -10 22 -28 35 -28 20z"/>
<path d="M2368 1036 c-8 -19 -17 -26 -30 -23 -20 6 -23 -4 -7 -20 8 -8 8 -13
0 -17 -6 -4 -11 -15 -11 -24 1 -15 3 -14 16 3 8 11 20 20 27 20 7 1 11 7 9 15
-2 8 2 24 9 37 7 13 10 26 6 29 -3 4 -12 -6 -19 -20z"/>
<path d="M790 962 c26 -38 119 -140 120 -130 0 4 -17 24 -37 46 -21 21 -53 56
-71 77 -27 32 -29 34 -12 7z"/>
<path d="M2277 967 c-8 -12 -35 -44 -61 -70 -49 -51 -64 -77 -20 -36 41 38
107 119 102 125 -3 2 -12 -6 -21 -19z"/>
<path d="M2346 918 c-26 -33 -28 -51 -3 -26 16 15 40 58 33 58 -2 0 -16 -14
-30 -32z"/>
<path d="M2266 885 c-15 -19 -22 -35 -17 -35 6 0 11 5 11 11 0 7 10 9 27 4 23
-5 25 -4 14 9 -11 13 -11 19 -1 31 7 8 8 15 2 15 -5 0 -22 -16 -36 -35z"/>
<path d="M2255 810 c-21 -22 -34 -40 -28 -40 10 0 73 65 73 75 0 10 -7 4 -45
-35z"/>
<path d="M2101 783 c0 -6 -8 -13 -16 -15 -10 -2 -12 -7 -5 -18 12 -20 34 1 27
26 -3 11 -5 14 -6 7z"/>
<path d="M2182 762 c2 -11 -3 -27 -11 -38 -7 -10 -2 -6 13 9 25 27 27 47 5 47
-6 0 -9 -8 -7 -18z"/>
<path d="M930 717 c0 -7 10 -22 22 -33 13 -12 18 -13 12 -4 -4 8 -9 21 -9 29
0 19 -25 27 -25 8z"/>
<path d="M1098 640 c-10 -17 -13 -32 -7 -35 5 -4 12 1 15 9 3 9 10 13 16 10 5
-3 7 -12 4 -20 -10 -27 14 -14 29 16 14 27 5 44 -10 20 -9 -15 -25 -2 -18 15
10 27 -12 15 -29 -15z"/>
<path d="M1930 654 c0 -11 -6 -14 -22 -9 -19 6 -18 2 11 -24 18 -18 34 -31 36
-29 6 8 -8 78 -16 78 -5 0 -9 -7 -9 -16z"/>
<path d="M1185 600 c-19 -37 -19 -37 6 -43 15 -4 19 -2 15 9 -3 8 -1 14 5 14
6 0 7 5 4 10 -3 6 1 10 9 10 23 0 20 17 -4 23 -15 4 -24 -2 -35 -23z"/>
<path d="M1847 618 c-16 -8 -16 -12 -2 -38 17 -32 39 -42 28 -12 -6 14 -4 15
9 4 11 -9 18 -10 23 -2 3 5 1 10 -4 10 -6 0 -11 9 -11 19 0 23 -20 32 -43 19z"/>
<path d="M1260 574 c-15 -39 -12 -44 20 -28 33 17 39 38 14 48 -23 9 -24 8
-34 -20z"/>
<path d="M1777 594 c-4 -4 -7 -26 -7 -48 1 -36 2 -39 14 -23 8 10 20 15 30 11
9 -3 16 -2 16 2 -1 16 -46 65 -53 58z"/>
<path d="M1347 573 c-11 -20 -16 -62 -8 -68 6 -3 13 11 17 30 6 34 1 56 -9 38z"/>
<path d="M1690 558 c0 -25 12 -58 21 -58 5 0 9 7 9 15 0 8 5 15 10 15 6 0 10
9 10 20 0 15 -7 20 -25 20 -14 0 -25 -6 -25 -12z"/>
<path d="M1394 546 c-15 -39 26 -77 47 -44 13 20 11 28 -7 28 -8 0 -12 -4 -9
-10 3 -5 1 -10 -4 -10 -6 0 -11 7 -11 15 0 8 9 15 21 15 11 0 17 5 14 10 -9
15 -45 12 -51 -4z"/>
<path d="M1614 545 c-4 -8 -3 -26 0 -39 4 -18 11 -23 26 -19 24 6 25 16 4 37
-8 9 -11 16 -5 16 6 0 11 5 11 10 0 16 -30 12 -36 -5z"/>
<path d="M1520 515 c0 -19 5 -35 10 -35 6 0 10 8 10 18 1 16 1 16 11 0 16 -29
29 -21 29 17 0 35 -20 51 -20 18 -1 -17 -1 -17 -14 0 -20 25 -26 21 -26 -18z"/>
</g>
</svg>
